<svg id="Layer_1" data-name="Layer 1" xmlns="http://www.w3.org/2000/svg" viewBox="0 0 292.03 337.51"><defs><style>.cls-1{fill:#fff;}.cls-2{fill:#84161b;}</style></defs><title>ZB_Logo_WhiteTextRedLine</title><polygon class="cls-1" points="110.6 227.11 130.29 194.88 63.17 194.88 160.1 31.19 13.3 31.19 13.3 62.4 98.73 62.4 0 227.11 110.6 227.11"/><path class="cls-1" d="M327.18,268c0-25.07-22-48.34-41.18-48.86v-.51C302.37,212,309.79,196.4,309.79,178c0-26.6-20-48.85-45.27-48.85H222.43L187.79,186V325.05h84.4C300.33,325.05,327.18,302.8,327.18,268ZM224.1,160.08h26.61c12.53,0,21.48,10.75,21.48,22.51,0,15.35-9.72,25.58-22.25,25.58H224.1Zm0,134.79V238.6h36.32c12.79,0,27.62,9.21,27.62,27.88,0,20.21-14.06,28.39-27.87,28.39Z" transform="translate(-35.15 -28.18)"/><path class="cls-2" d="M80.88,365.69a3.48,3.48,0,0,1-3-5.29L278.26,29.86a3.49,3.49,0,1,1,6,3.61L83.86,364A3.47,3.47,0,0,1,80.88,365.69Z" transform="translate(-35.15 -28.18)"/></svg>